<svg xmlns="http://www.w3.org/2000/svg" width="18" height="18" viewBox="0 0 18 18">
    <g fill="none" fill-rule="evenodd">
        <g fill="#04A5A6" fill-rule="nonzero">
            <g>
                <g>
                    <path d="M5.912 2.077c-2.607 2.616-2.768 6.797-.369 9.606l-2.385 2.385-2.396-2.385-.762.773 2.385 2.386L.37 16.858l.773.773 2.016-2.016L5.543 18l.774-.762-2.385-2.396 2.385-2.386c2.915 2.497 7.29 2.215 9.86-.636 2.572-2.85 2.402-7.23-.381-9.874-2.784-2.644-7.167-2.587-9.88.128l-.004.003zm9.238 9.237c-2.338 2.334-6.125 2.331-8.46-.005-2.334-2.336-2.334-6.123 0-8.46C9.026.514 12.813.512 15.15 2.845c2.335 2.34 2.335 6.13 0 8.47z" transform="translate(-236 -405) translate(34 387) translate(202 18)"/>
                </g>
            </g>
        </g>
    </g>
</svg>
